# xmcd
#
# Track frame offsets:
#	150
#	11955
#	24659
#	35978
#	49082
#	65344
#	74564
#	86834
#	99298
#	112100
#	122975
#	135305
#	145424
#	155953
#	166965
#	179212
#	189227
#	198452
#	213222
#	224256
#	237608
#	247763
#	259222
#	270054
#
# Disc length: 3787 seconds
#
# Revision: 0
# Processed by: cddbd v1.5.2PL0 Copyright (c) Steve Scherf et al.
# Submitted via: EasyCDDAExtractor 16.0.1.1
#
DISCID=720ec918
DTITLE=Rose Maddox - A Big Bouqet Of Roses! and Rose Maddox Sings Bluegrass
DYEAR=1962
DGENRE=Bluegrass
TTITLE0=Gotta Travel On
TTITLE1=Conscience  I'm Guilty
TTITLE2=Tall Men
TTITLE3=North To Alaska
TTITLE4=Lonely Street
TTITLE5=Don't Tell Me Your Troubles
TTITLE6=Early In The Morning
TTITLE7=Just One More Time
TTITLE8=Jim Dandy
TTITLE9=Read My Letter Once Again
TTITLE10=What Am I Living For
TTITLE11=There's Better Times A Comin'
TTITLE12=Rollin' In My Sweet Baby's Arms
TTITLE13=Down  Down  Down
TTITLE14=My Rose Of Old Kentucky
TTITLE15=Cotton Fields (Back Home)
TTITLE16=Uncle Pen
TTITLE17=I'll Meet You In The Church Sunday Morning
TTITLE18=Old Slew Foot
TTITLE19=Each Season Changes You
TTITLE20=Blue Moon Of Kentucky
TTITLE21=Footprints In The Snow
TTITLE22=Molley And Tenbrooks
TTITLE23=The Old Crossroads Is Waitin'
EXTD=
EXTT0=
EXTT1=
EXTT2=
EXTT3=
EXTT4=
EXTT5=
EXTT6=
EXTT7=
EXTT8=
EXTT9=
EXTT10=
EXTT11=
EXTT12=
EXTT13=
EXTT14=
EXTT15=
EXTT16=
EXTT17=
EXTT18=
EXTT19=
EXTT20=
EXTT21=
EXTT22=
EXTT23=
PLAYORDER=
